<svg width="44" height="44" viewBox="0 0 44 44" fill="none" xmlns="http://www.w3.org/2000/svg">
<path d="M37.6567 11.5317L34.8333 8.70833L32.2483 6.12333C32.0774 5.9524 31.8745 5.8168 31.6511 5.72429C31.4278 5.63178 31.1884 5.58417 30.9467 5.58417C30.7049 5.58417 30.4656 5.63178 30.2422 5.72429C30.0189 5.8168 29.8159 5.9524 29.645 6.12333C29.4741 6.29427 29.3385 6.4972 29.246 6.72054C29.1535 6.94388 29.1058 7.18326 29.1058 7.425C29.1058 7.66674 29.1535 7.90612 29.246 8.12946C29.3385 8.3528 29.4741 8.55573 29.645 8.72667L31.4783 10.56L29.9567 15.125C29.6349 16.0949 29.5896 17.1352 29.826 18.1293C30.0624 19.1235 30.5711 20.0321 31.295 20.7533L36.7033 26.2533V34.8333C36.7033 35.3196 36.5102 35.7859 36.1664 36.1297C35.8225 36.4735 35.3562 36.6667 34.87 36.6667C34.3838 36.6667 33.9175 36.4735 33.5736 36.1297C33.2298 35.7859 33.0367 35.3196 33.0367 34.8333V31.1667C33.0367 29.708 32.4572 28.309 31.4258 27.2776C30.3943 26.2461 28.9954 25.6667 27.5367 25.6667H25.6667V9.16667C25.6667 7.70798 25.0872 6.30903 24.0558 5.27758C23.0243 4.24613 21.6254 3.66667 20.1667 3.66667H9.16667C7.70798 3.66667 6.30903 4.24613 5.27758 5.27758C4.24613 6.30903 3.66667 7.70798 3.66667 9.16667V34.8333C3.66667 36.292 4.24613 37.691 5.27758 38.7224C6.30903 39.7539 7.70798 40.3333 9.16667 40.3333H20.1667C21.6254 40.3333 23.0243 39.7539 24.0558 38.7224C25.0872 37.691 25.6667 36.292 25.6667 34.8333V29.3333H27.5C27.9862 29.3333 28.4525 29.5265 28.7964 29.8703C29.1402 30.2141 29.3333 30.6804 29.3333 31.1667V34.8333C29.3333 36.292 29.9128 37.691 30.9442 38.7224C31.9757 39.7539 33.3746 40.3333 34.8333 40.3333C36.292 40.3333 37.691 39.7539 38.7224 38.7224C39.7539 37.691 40.3333 36.292 40.3333 34.8333V18.0217C40.3355 16.8171 40.1002 15.6239 39.6409 14.5103C39.1816 13.3967 38.5074 12.3845 37.6567 11.5317V11.5317ZM22 34.8333C22 35.3196 21.8068 35.7859 21.463 36.1297C21.1192 36.4735 20.6529 36.6667 20.1667 36.6667H9.16667C8.68044 36.6667 8.21413 36.4735 7.87031 36.1297C7.52649 35.7859 7.33334 35.3196 7.33334 34.8333V22H22V34.8333ZM22 18.3333H7.33334V9.16667C7.33334 8.68044 7.52649 8.21412 7.87031 7.8703C8.21413 7.52649 8.68044 7.33333 9.16667 7.33333H20.1667C20.6529 7.33333 21.1192 7.52649 21.463 7.8703C21.8068 8.21412 22 8.68044 22 9.16667V18.3333ZM36.6667 20.9367L33.8433 18.1133C33.6108 17.8762 33.4471 17.5805 33.3696 17.2576C33.2921 16.9347 33.3038 16.5968 33.4033 16.28L34.3383 13.4567L35.0533 14.19C36.0717 15.2069 36.6509 16.5826 36.6667 18.0217V20.9367Z" fill="#F5F5F5"/>
</svg>
