<svg width="97" height="44" viewBox="0 0 97 44" fill="none" xmlns="http://www.w3.org/2000/svg">
<path d="M37.6055 30.1875C37.3125 31.2188 36.6387 31.9805 35.584 32.4727C34.8457 32.8242 34.0547 33 33.2109 33H26.4434C24.709 33 23.8418 32.4082 23.8418 31.2246C23.8418 30.9199 23.9062 30.5742 24.0352 30.1875L30.5566 11.8008H36.7793L30.2227 30.1875H37.6055ZM49.5938 13.8398C49.5938 15.0117 49.1367 16.0078 48.2227 16.8281C47.3203 17.6484 46.2305 18.0586 44.9531 18.0586C43.6523 18.0586 42.5449 17.6484 41.6309 16.8281C40.7285 16.0078 40.2773 15.0117 40.2773 13.8398C40.2773 12.6797 40.7285 11.6895 41.6309 10.8691C42.5449 10.0488 43.6523 9.63867 44.9531 9.63867C46.2305 9.63867 47.3203 10.0488 48.2227 10.8691C49.1367 11.6895 49.5938 12.6797 49.5938 13.8398ZM50.8594 30.1875C50.5547 31.2188 49.9219 31.9805 48.9609 32.4727C48.2695 32.8242 47.5195 33 46.7109 33H39.7676C38.0918 33 37.2539 32.2969 37.2539 30.8906C37.2539 30.4922 37.3359 30.0645 37.5 29.6074L40.5586 21.0469H46.9395L43.6875 30.1875H50.8594ZM73.6758 30.1875C73.1367 32.0625 71.3965 33 68.4551 33H65.3262C64.2832 35.8359 63.2461 37.8867 62.2148 39.1523C60.7031 41.0039 58.7871 41.9297 56.4668 41.9297C55.1543 41.9297 54.1055 41.5605 53.3203 40.8223C52.5469 40.0957 52.1602 39.082 52.1602 37.7812C52.1602 35.2383 52.9043 33.5977 54.3926 32.8594C53.291 32.6016 52.3828 32.0918 51.668 31.3301C50.8359 30.4629 50.4199 29.4141 50.4199 28.1836C50.4199 27.7031 50.4961 27.1992 50.6484 26.6719C51.1523 24.7617 52.2598 23.3203 53.9707 22.3477C55.4707 21.4805 57.2754 21.0469 59.3848 21.0469H69.4395L66.2227 30.1875H73.6758ZM62.0918 23.8594H58.3477L56.9414 28.3242C56.8594 28.5938 56.8184 28.8398 56.8184 29.0625C56.8184 30.0586 57.5449 30.5566 58.998 30.5566C59.0918 30.5566 59.2266 30.5508 59.4023 30.5391C59.5898 30.5273 59.7305 30.5215 59.8242 30.5215L62.0918 23.8594ZM58.998 33.4746C58.2363 33.4746 57.5215 33.9082 56.8535 34.7754C56.1973 35.6543 55.8691 36.5273 55.8691 37.3945C55.8691 38.168 56.2031 38.7891 56.8711 39.2578L58.998 33.4746ZM96.1758 30.1875C95.6133 32.0625 94.1777 33 91.8691 33H85.207C83.3086 33 82.3594 32.3906 82.3594 31.1719C81.082 32.625 79.5117 33.3516 77.6484 33.3516C76.2773 33.3516 75.1641 32.9297 74.3086 32.0859C73.4531 31.2422 73.0254 30.1406 73.0254 28.7812C73.0254 26.332 73.9629 24.3984 75.8379 22.9805C77.5371 21.6914 79.6406 21.0469 82.1484 21.0469H92.1855L88.8809 30.1875H96.1758ZM84.8379 23.8594H80.9531L79.7227 27.9551C79.6523 28.2129 79.6172 28.4473 79.6172 28.6582C79.6172 29.6777 80.6133 30.1875 82.6055 30.1875L84.8379 23.8594Z" fill="white"/>
<path d="M8.9 30.5C9.01789 30.2626 9.03672 29.9881 8.95234 29.7369C8.86796 29.4856 8.68728 29.2781 8.45 29.16C7.1718 28.5271 6.08605 27.5639 5.30522 26.3703C4.5244 25.1767 4.07689 23.796 4.00906 22.3713C3.94122 20.9466 4.25553 19.5296 4.91941 18.2672C5.5833 17.0048 6.57263 15.9428 7.78492 15.1913C8.99721 14.4398 10.3884 14.0261 11.8143 13.993C13.2403 13.9598 14.6491 14.3086 15.895 15.003C17.1409 15.6975 18.1784 16.7124 18.9002 17.9426C19.6219 19.1728 20.0016 20.5737 20 22C20.0065 23.4911 19.5924 24.9538 18.8053 26.2203C18.0181 27.4868 16.8899 28.5056 15.55 29.16C15.3113 29.2793 15.1298 29.4886 15.0454 29.7418C14.961 29.995 14.9807 30.2713 15.1 30.51C15.2194 30.7487 15.4286 30.9302 15.6818 31.0146C15.935 31.099 16.2113 31.0793 16.45 30.96C18.4693 29.9566 20.0901 28.3002 21.0496 26.2597C22.009 24.2192 22.2507 21.9143 21.7353 19.7192C21.22 17.5241 19.9779 15.5675 18.2107 14.1671C16.4435 12.7667 14.2548 12.0047 12 12.0047C9.74519 12.0047 7.55655 12.7667 5.78932 14.1671C4.02209 15.5675 2.78001 17.5241 2.26468 19.7192C1.74934 21.9143 1.991 24.2192 2.95043 26.2597C3.90986 28.3002 5.53075 29.9566 7.55 30.96C7.66863 31.0196 7.79794 31.055 7.93039 31.0641C8.06283 31.0732 8.19576 31.0558 8.32142 31.013C8.44709 30.9702 8.56296 30.9027 8.6623 30.8147C8.76164 30.7266 8.84244 30.6196 8.9 30.5ZM13 31V21.41L15.29 23.71C15.3832 23.8032 15.4939 23.8772 15.6158 23.9277C15.7376 23.9781 15.8681 24.0041 16 24.0041C16.1319 24.0041 16.2624 23.9781 16.3843 23.9277C16.5061 23.8772 16.6168 23.8032 16.71 23.71C16.8032 23.6168 16.8772 23.5061 16.9277 23.3843C16.9781 23.2624 17.0041 23.1319 17.0041 23C17.0041 22.8681 16.9781 22.7376 16.9277 22.6158C16.8772 22.4939 16.8032 22.3832 16.71 22.29L12.71 18.29C12.6149 18.199 12.5028 18.1276 12.38 18.08C12.1365 17.98 11.8635 17.98 11.62 18.08C11.4973 18.1276 11.3851 18.199 11.29 18.29L7.29 22.29C7.19628 22.383 7.12188 22.4936 7.07111 22.6154C7.02034 22.7373 6.9942 22.868 6.9942 23C6.9942 23.132 7.02034 23.2627 7.07111 23.3846C7.12188 23.5064 7.19628 23.617 7.29 23.71C7.38297 23.8037 7.49357 23.8781 7.61543 23.9289C7.73729 23.9797 7.86799 24.0058 8 24.0058C8.13202 24.0058 8.26272 23.9797 8.38458 23.9289C8.50644 23.8781 8.61704 23.8037 8.71 23.71L11 21.41V31C11 31.2652 11.1054 31.5196 11.2929 31.7071C11.4804 31.8946 11.7348 32 12 32C12.2652 32 12.5196 31.8946 12.7071 31.7071C12.8946 31.5196 13 31.2652 13 31Z" fill="#2E8A6E"/>
</svg>
