<svg width="134" height="58" viewBox="0 0 134 58" fill="none" xmlns="http://www.w3.org/2000/svg">
<path d="M41.2734 39.25C41.2109 40.4219 40.6641 41.3594 39.6328 42.0625C38.6953 42.6875 37.6094 43 36.375 43H27.3516C26.1172 43 25.1797 42.6719 24.5391 42.0156C24.1172 41.5938 23.5859 40.6719 22.9453 39.25L18.3281 29.0312C18.9062 28.9219 20.2422 28.4766 22.3359 27.6953C24.3672 26.9453 25.6406 26.4297 26.1562 26.1484C29.2656 24.5391 30.8203 22.5234 30.8203 20.1016C30.8203 17.3203 28.8516 15.9297 24.9141 15.9297H1.00781L4.66406 10.0234H28.2656C36.75 10.0234 40.9922 12.7266 40.9922 18.1328C40.9922 22.7109 36.5781 26.7109 27.75 30.1328L31.9688 39.25H41.2734ZM21.6562 18.9531L13.1016 43H4.66406L13.1484 18.9531H21.6562ZM83.5781 17.8516C83.5781 22.4766 80.3828 26.4453 73.9922 29.7578C69.7266 31.9922 64.6484 33.6875 58.7578 34.8438L55.8984 43H47.3438L55.8984 18.9531H64.3828L60.3516 30.2266C63.3828 29.5391 66.0703 28.4688 68.4141 27.0156C71.6797 24.9688 73.375 22.5859 73.5 19.8672C73.5781 18.1172 72.9922 16.9688 71.7422 16.4219C70.9922 16.0938 69.6406 15.9297 67.6875 15.9297H43.7344L47.3906 10.0234H71.5312C75.0625 10.0234 77.7578 10.4609 79.6172 11.3359C82.2578 12.5703 83.5781 14.7422 83.5781 17.8516ZM133.969 39.25C133.312 41.75 131.141 43 127.453 43H119.039C116.414 43 115.102 42.2422 115.102 40.7266C115.102 40.1953 115.266 39.5 115.594 38.6406L119.484 28.5156L107.859 41.2656C106.609 42.6562 105.242 43.3516 103.758 43.3516C103.477 43.3516 103.18 43.3281 102.867 43.2812C101.086 43.0781 100.195 42.1875 100.195 40.6094C100.195 40 100.336 39.3438 100.617 38.6406L106.383 23.7578L91.9219 41.2188C90.9531 42.4062 89.5312 43 87.6562 43H82.8984L92.3672 15.9297H79.3594L82.8984 10.0234H98.5547C100.711 10.0234 101.789 10.8125 101.789 12.3906C101.789 13 101.641 13.7344 101.344 14.5938L96.3047 29.125L106.383 17.7109C107.664 16.2422 108.648 15.2891 109.336 14.8516C110.477 14.1328 111.953 13.7734 113.766 13.7734C114.281 13.7734 114.82 13.9531 115.383 14.3125C116.242 14.875 116.672 15.7109 116.672 16.8203C116.672 17.5078 116.5 18.2812 116.156 19.1406L111.609 30.9531L120.633 21.8828C121.914 20.6016 122.766 19.8281 123.188 19.5625C123.922 19.1406 124.977 18.9375 126.352 18.9531C126.898 18.9531 127.477 19.1562 128.086 19.5625C129.023 20.1719 129.492 21.0625 129.492 22.2344C129.492 22.9062 129.336 23.6484 129.023 24.4609L123.422 39.25H133.969Z" fill="#F5F5F5"/>
<path d="M63.0195 39.6797L61.0908 41.0908L62.3604 43H60.3779L59.748 42.0723L58.4688 43H56.9404L59.2305 41.3105L58.1221 39.6797H60.1582L60.5781 40.3096L61.4277 39.6797H63.0195ZM67.0039 37.5215L65.085 43H63.3125L65.2412 37.3701H63.6934L64.3428 36.1299H66.252C66.5059 36.1299 66.7093 36.2031 66.8623 36.3496C67.0251 36.5059 67.1064 36.7158 67.1064 36.9795C67.1064 37.1455 67.0723 37.3262 67.0039 37.5215ZM74.6895 39.1523C74.6895 40.2819 74.3607 41.2129 73.7031 41.9453C73.0195 42.7005 72.1195 43.0781 71.0029 43.0781C70.1045 43.0781 69.3818 42.8047 68.835 42.2578C68.2913 41.7077 68.0195 40.9818 68.0195 40.0801C68.0195 38.957 68.3516 38.026 69.0156 37.2871C69.7025 36.5221 70.6009 36.1396 71.7109 36.1396C72.6126 36.1396 73.3337 36.4163 73.874 36.9697C74.4176 37.5231 74.6895 38.2507 74.6895 39.1523ZM72.5996 38.5908C72.5996 37.624 72.3164 37.1406 71.75 37.1406C71.1966 37.1406 70.7588 37.6143 70.4365 38.5615C70.1924 39.2777 70.0703 39.9873 70.0703 40.6904C70.0703 41.6507 70.3568 42.1309 70.9297 42.1309C71.4863 42.1309 71.9242 41.6589 72.2432 40.7148C72.4808 40.0085 72.5996 39.3005 72.5996 38.5908ZM82.4141 39.1523C82.4141 40.2819 82.0853 41.2129 81.4277 41.9453C80.7441 42.7005 79.8441 43.0781 78.7275 43.0781C77.8291 43.0781 77.1064 42.8047 76.5596 42.2578C76.016 41.7077 75.7441 40.9818 75.7441 40.0801C75.7441 38.957 76.0762 38.026 76.7402 37.2871C77.4271 36.5221 78.3255 36.1396 79.4355 36.1396C80.3372 36.1396 81.0583 36.4163 81.5986 36.9697C82.1423 37.5231 82.4141 38.2507 82.4141 39.1523ZM80.3242 38.5908C80.3242 37.624 80.041 37.1406 79.4746 37.1406C78.9212 37.1406 78.4834 37.6143 78.1611 38.5615C77.917 39.2777 77.7949 39.9873 77.7949 40.6904C77.7949 41.6507 78.0814 42.1309 78.6543 42.1309C79.2109 42.1309 79.6488 41.6589 79.9678 40.7148C80.2054 40.0085 80.3242 39.3005 80.3242 38.5908Z" fill="#EF233C"/>
</svg>
