<svg width="133" height="26" viewBox="0 0 133 26" fill="none" xmlns="http://www.w3.org/2000/svg">
<path d="M8.02344 21.0156L5.70898 22.709L7.23242 25H4.85352L4.09766 23.8867L2.5625 25H0.728516L3.47656 22.9727L2.14648 21.0156H4.58984L5.09375 21.7715L6.11328 21.0156H8.02344ZM12.8047 18.4258L10.502 25H8.375L10.6895 18.2441H8.83203L9.61133 16.7559H11.9023C12.207 16.7559 12.4512 16.8438 12.6348 17.0195C12.8301 17.207 12.9277 17.459 12.9277 17.7754C12.9277 17.9746 12.8867 18.1914 12.8047 18.4258ZM22.0273 20.3828C22.0273 21.7383 21.6328 22.8555 20.8438 23.7344C20.0234 24.6406 18.9434 25.0938 17.6035 25.0938C16.5254 25.0938 15.6582 24.7656 15.002 24.1094C14.3496 23.4492 14.0234 22.5781 14.0234 21.4961C14.0234 20.1484 14.4219 19.0312 15.2188 18.1445C16.043 17.2266 17.1211 16.7676 18.4531 16.7676C19.5352 16.7676 20.4004 17.0996 21.0488 17.7637C21.7012 18.4277 22.0273 19.3008 22.0273 20.3828ZM19.5195 19.709C19.5195 18.5488 19.1797 17.9688 18.5 17.9688C17.8359 17.9688 17.3105 18.5371 16.9238 19.6738C16.6309 20.5332 16.4844 21.3848 16.4844 22.2285C16.4844 23.3809 16.8281 23.957 17.5156 23.957C18.1836 23.957 18.709 23.3906 19.0918 22.2578C19.377 21.4102 19.5195 20.5605 19.5195 19.709ZM31.2969 20.3828C31.2969 21.7383 30.9023 22.8555 30.1133 23.7344C29.293 24.6406 28.2129 25.0938 26.873 25.0938C25.7949 25.0938 24.9277 24.7656 24.2715 24.1094C23.6191 23.4492 23.293 22.5781 23.293 21.4961C23.293 20.1484 23.6914 19.0312 24.4883 18.1445C25.3125 17.2266 26.3906 16.7676 27.7227 16.7676C28.8047 16.7676 29.6699 17.0996 30.3184 17.7637C30.9707 18.4277 31.2969 19.3008 31.2969 20.3828ZM28.7891 19.709C28.7891 18.5488 28.4492 17.9688 27.7695 17.9688C27.1055 17.9688 26.5801 18.5371 26.1934 19.6738C25.9004 20.5332 25.7539 21.3848 25.7539 22.2285C25.7539 23.3809 26.0977 23.957 26.7852 23.957C27.4531 23.957 27.9785 23.3906 28.3613 22.2578C28.6465 21.4102 28.7891 20.5605 28.7891 19.709ZM62.9316 22.1875C62.8848 23.0664 62.4746 23.7695 61.7012 24.2969C60.998 24.7656 60.1836 25 59.2578 25H52.4902C51.5645 25 50.8613 24.7539 50.3809 24.2617C50.0645 23.9453 49.666 23.2539 49.1855 22.1875L45.7227 14.5234C46.1562 14.4414 47.1582 14.1074 48.7285 13.5215C50.252 12.959 51.207 12.5723 51.5938 12.3613C53.9258 11.1543 55.0918 9.64258 55.0918 7.82617C55.0918 5.74023 53.6152 4.69727 50.6621 4.69727H32.7324L35.4746 0.267578H53.1758C59.5391 0.267578 62.7207 2.29492 62.7207 6.34961C62.7207 9.7832 59.4102 12.7832 52.7891 15.3496L55.9531 22.1875H62.9316ZM48.2188 6.96484L41.8027 25H35.4746L41.8379 6.96484H48.2188ZM94.6602 6.13867C94.6602 9.60742 92.2637 12.584 87.4707 15.0684C84.2715 16.7441 80.4629 18.0156 76.0449 18.8828L73.9004 25H67.4844L73.9004 6.96484H80.2637L77.2402 15.4199C79.5137 14.9043 81.5293 14.1016 83.2871 13.0117C85.7363 11.4766 87.0078 9.68945 87.1016 7.65039C87.1602 6.33789 86.7207 5.47656 85.7832 5.06641C85.2207 4.82031 84.207 4.69727 82.7422 4.69727H64.7773L67.5195 0.267578H85.625C88.2734 0.267578 90.2949 0.595703 91.6895 1.25195C93.6699 2.17773 94.6602 3.80664 94.6602 6.13867ZM132.453 22.1875C131.961 24.0625 130.332 25 127.566 25H121.256C119.287 25 118.303 24.4316 118.303 23.2949C118.303 22.8965 118.426 22.375 118.672 21.7305L121.59 14.1367L112.871 23.6992C111.934 24.7422 110.908 25.2637 109.795 25.2637C109.584 25.2637 109.361 25.2461 109.127 25.2109C107.791 25.0586 107.123 24.3906 107.123 23.207C107.123 22.75 107.229 22.2578 107.439 21.7305L111.764 10.5684L100.918 23.6641C100.191 24.5547 99.125 25 97.7188 25H94.1504L101.252 4.69727H91.4961L94.1504 0.267578H105.893C107.51 0.267578 108.318 0.859375 108.318 2.04297C108.318 2.5 108.207 3.05078 107.984 3.69531L104.205 14.5938L111.764 6.0332C112.725 4.93164 113.463 4.2168 113.979 3.88867C114.834 3.34961 115.941 3.08008 117.301 3.08008C117.688 3.08008 118.092 3.21484 118.514 3.48438C119.158 3.90625 119.48 4.5332 119.48 5.36523C119.48 5.88086 119.352 6.46094 119.094 7.10547L115.684 15.9648L122.451 9.16211C123.412 8.20117 124.051 7.62109 124.367 7.42188C124.918 7.10547 125.709 6.95312 126.74 6.96484C127.15 6.96484 127.584 7.11719 128.041 7.42188C128.744 7.87891 129.096 8.54688 129.096 9.42578C129.096 9.92969 128.979 10.4863 128.744 11.0957L124.543 22.1875H132.453Z" fill="#F5F5F5"/>
</svg>
