<svg width="44" height="44" viewBox="0 0 44 44" fill="none" xmlns="http://www.w3.org/2000/svg">
<path d="M22 29.3333C21.6374 29.3333 21.2829 29.4409 20.9815 29.6423C20.68 29.8438 20.445 30.1301 20.3062 30.4651C20.1675 30.8001 20.1312 31.1687 20.2019 31.5243C20.2726 31.88 20.4472 32.2066 20.7036 32.463C20.96 32.7194 21.2867 32.894 21.6423 32.9648C21.998 33.0355 22.3666 32.9992 22.7016 32.8605C23.0366 32.7217 23.3229 32.4867 23.5244 32.1852C23.7258 31.8837 23.8333 31.5293 23.8333 31.1667C23.8333 30.6804 23.6402 30.2141 23.2964 29.8703C22.9525 29.5265 22.4862 29.3333 22 29.3333ZM41.5617 32.0283L26.8033 6.36167C26.3263 5.50645 25.6296 4.79409 24.7852 4.2982C23.9408 3.8023 22.9793 3.54085 22 3.54085C21.0207 3.54085 20.0592 3.8023 19.2148 4.2982C18.3704 4.79409 17.6737 5.50645 17.1967 6.36167L2.53 32.0283C2.03646 32.8607 1.77126 33.8085 1.76118 34.7762C1.7511 35.7438 1.99649 36.697 2.47259 37.5394C2.94868 38.3819 3.63862 39.0838 4.47275 39.5744C5.30688 40.0649 6.25567 40.3267 7.22333 40.3333H36.7767C37.7521 40.343 38.7125 40.093 39.5595 39.609C40.4065 39.1251 41.1095 38.4246 41.5965 37.5793C42.0834 36.7341 42.3369 35.7746 42.3308 34.7991C42.3246 33.8237 42.0592 32.8674 41.5617 32.0283V32.0283ZM38.39 35.695C38.2293 35.9809 37.9948 36.2185 37.7111 36.3829C37.4273 36.5474 37.1046 36.6327 36.7767 36.63H7.22333C6.89537 36.6327 6.57268 36.5474 6.28891 36.3829C6.00515 36.2185 5.77069 35.9809 5.61 35.695C5.44909 35.4163 5.36438 35.1002 5.36438 34.7783C5.36438 34.4565 5.44909 34.1404 5.61 33.8617L20.2767 8.195C20.4305 7.8947 20.6643 7.64268 20.9521 7.4667C21.24 7.29072 21.5709 7.1976 21.9083 7.1976C22.2457 7.1976 22.5766 7.29072 22.8645 7.4667C23.1524 7.64268 23.3861 7.8947 23.54 8.195L38.2983 33.8617C38.4802 34.1364 38.5847 34.455 38.6009 34.7841C38.617 35.1132 38.5442 35.4405 38.39 35.7317V35.695ZM22 14.6667C21.5138 14.6667 21.0475 14.8598 20.7036 15.2036C20.3598 15.5475 20.1667 16.0138 20.1667 16.5V23.8333C20.1667 24.3196 20.3598 24.7859 20.7036 25.1297C21.0475 25.4735 21.5138 25.6667 22 25.6667C22.4862 25.6667 22.9525 25.4735 23.2964 25.1297C23.6402 24.7859 23.8333 24.3196 23.8333 23.8333V16.5C23.8333 16.0138 23.6402 15.5475 23.2964 15.2036C22.9525 14.8598 22.4862 14.6667 22 14.6667Z" fill="#EF233C"/>
</svg>
