<svg width="113" height="26" viewBox="0 0 113 26" fill="none" xmlns="http://www.w3.org/2000/svg">
<path d="M35.9277 0.267578L21.5488 13.0469H22.8848C24.5254 13.0469 25.3457 13.7676 25.3457 15.209C25.3457 15.6895 25.2344 16.2402 25.0117 16.8613L23.1484 22.1875H30.4434C29.9043 24.0625 28.1992 25 25.3281 25H19.1758C17.4883 25 16.6445 24.373 16.6445 23.1191C16.6445 22.8262 16.6973 22.5156 16.8027 22.1875L19.1406 15.1738L9.96484 23.3477C8.72266 24.4492 7.29297 25 5.67578 25H2.72266L9.89453 4.69727H0.0683594L2.75781 0.267578H13.709C15.7129 0.267578 16.7148 1.02344 16.7148 2.53516C16.7148 3.05078 16.5977 3.64844 16.3633 4.32812L12.0918 17.002L30.4434 0.267578H35.9277ZM71.0664 22.1875C70.5742 24.0625 68.9453 25 66.1797 25H59.8691C57.9004 25 56.916 24.4316 56.916 23.2949C56.916 22.8965 57.0391 22.375 57.2852 21.7305L60.2031 14.1367L51.4844 23.6992C50.5469 24.7422 49.5215 25.2637 48.4082 25.2637C48.1973 25.2637 47.9746 25.2461 47.7402 25.2109C46.4043 25.0586 45.7363 24.3906 45.7363 23.207C45.7363 22.75 45.8418 22.2578 46.0527 21.7305L50.377 10.5684L39.5312 23.6641C38.8047 24.5547 37.7383 25 36.332 25H32.7637L39.8652 4.69727H30.1094L32.7637 0.267578H44.5059C46.123 0.267578 46.9316 0.859375 46.9316 2.04297C46.9316 2.5 46.8203 3.05078 46.5977 3.69531L42.8184 14.5938L50.377 6.0332C51.3379 4.93164 52.0762 4.2168 52.5918 3.88867C53.4473 3.34961 54.5547 3.08008 55.9141 3.08008C56.3008 3.08008 56.7051 3.21484 57.127 3.48438C57.7715 3.90625 58.0938 4.5332 58.0938 5.36523C58.0938 5.88086 57.9648 6.46094 57.707 7.10547L54.2969 15.9648L61.0645 9.16211C62.0254 8.20117 62.6641 7.62109 62.9805 7.42188C63.5312 7.10547 64.3223 6.95312 65.3535 6.96484C65.7637 6.96484 66.1973 7.11719 66.6543 7.42188C67.3574 7.87891 67.709 8.54688 67.709 9.42578C67.709 9.92969 67.5918 10.4863 67.3574 11.0957L63.1562 22.1875H71.0664ZM91.334 0.267578L77.7988 25H74.0195L87.5547 0.267578H91.334ZM112.656 22.1875C112.352 23.2188 111.701 23.9805 110.705 24.4727C109.99 24.8242 109.223 25 108.402 25H100.914C99.5898 25 98.9277 24.5195 98.9277 23.5586C98.9277 23.1836 99.0156 22.7266 99.1914 22.1875L100.457 18.4434L93.7949 23.9277C92.9746 24.6426 92.1074 25 91.1934 25H87.5723L95.0957 3.76562H101.424L96.1328 18.707L101.494 14.3125C102.877 13.1758 104.447 12.6074 106.205 12.6074C107.377 12.6074 107.963 13.2051 107.963 14.4004C107.963 14.834 107.857 15.332 107.646 15.8945L105.414 22.1875H112.656Z" fill="#F5F5F5"/>
</svg>
